# xmcd
#
# Track frame offsets: 
#        180
#        15985
#        35160
#        48461
#        63412
#        83511
#        99842
#        116452
#        129647
#        142440
#        158983
#        179965
#        197538
#
# Disc length: 2895 seconds
#
# Revision: 0
# Processed by: cddbd v1.4PL0 Copyright (c) Steve Scherf et al.
# Submitted via: ExactAudioCopy v0.95a1
#
DISCID=b50b4d0d
DTITLE=Christian Simmons - Everything I Need
DYEAR=2000
DGENRE=Country
TTITLE0=High And Lonesome
TTITLE1=What's Left Of You Is Gone
TTITLE2=Something To Write Home About
TTITLE3=What Am I Doing Hangin' Around Here
TTITLE4=Everything That I Need (MIRACLE)
TTITLE5=All I Want Is A Dance
TTITLE6=Mrs. Somewhere Else
TTITLE7=Without You (There Ain't No Me)
TTITLE8=All Fixed Up
TTITLE9=Nobody Wins
TTITLE10=Look At Me
TTITLE11=Knocking On Old Doors
TTITLE12=My Heart Just Said Good-Bye
EXTD=
EXTT0=
EXTT1=
EXTT2=
EXTT3=
EXTT4=
EXTT5=
EXTT6=
EXTT7=
EXTT8=
EXTT9=
EXTT10=
EXTT11=
EXTT12=
PLAYORDER=
